<mxfile host="app.diagrams.net" modified="2023-08-16T02:48:57.011Z" agent="Mozilla/5.0 (Macintosh; Intel Mac OS X 10_15_7) AppleWebKit/537.36 (KHTML, like Gecko) Chrome/114.0.0.0 Safari/537.36" etag="A_WvMcgE3hfl0SOjUh1o" version="21.6.6" type="github">
  <diagram name="第 1 页" id="7eHQmDfcTHvjRCA1k7SG">
    <mxGraphModel dx="1595" dy="894" grid="1" gridSize="10" guides="1" tooltips="1" connect="1" arrows="1" fold="1" page="1" pageScale="1" pageWidth="827" pageHeight="1169" math="0" shadow="0">
      <root>
        <mxCell id="0" />
        <mxCell id="1" parent="0" />
        <mxCell id="NQyV9BDFHaZzxVcDOJKC-3" style="edgeStyle=orthogonalEdgeStyle;rounded=0;orthogonalLoop=1;jettySize=auto;html=1;" edge="1" parent="1" source="NQyV9BDFHaZzxVcDOJKC-2" target="NQyV9BDFHaZzxVcDOJKC-4">
          <mxGeometry relative="1" as="geometry">
            <mxPoint x="290" y="100" as="targetPoint" />
          </mxGeometry>
        </mxCell>
        <mxCell id="NQyV9BDFHaZzxVcDOJKC-9" style="edgeStyle=orthogonalEdgeStyle;rounded=0;orthogonalLoop=1;jettySize=auto;html=1;entryX=0;entryY=0.5;entryDx=0;entryDy=0;" edge="1" parent="1" source="NQyV9BDFHaZzxVcDOJKC-2" target="NQyV9BDFHaZzxVcDOJKC-11">
          <mxGeometry relative="1" as="geometry">
            <mxPoint x="80" y="450" as="targetPoint" />
          </mxGeometry>
        </mxCell>
        <mxCell id="NQyV9BDFHaZzxVcDOJKC-2" value="config" style="rounded=1;whiteSpace=wrap;html=1;" vertex="1" parent="1">
          <mxGeometry x="20" y="140" width="120" height="60" as="geometry" />
        </mxCell>
        <mxCell id="NQyV9BDFHaZzxVcDOJKC-4" value="" style="rounded=1;whiteSpace=wrap;html=1;" vertex="1" parent="1">
          <mxGeometry x="230" y="10" width="370" height="320" as="geometry" />
        </mxCell>
        <mxCell id="NQyV9BDFHaZzxVcDOJKC-5" value="A-B-C1，B样式微调style1&lt;br&gt;(A-B1-C1)" style="rounded=0;whiteSpace=wrap;html=1;" vertex="1" parent="1">
          <mxGeometry x="280" y="70" width="290" height="90" as="geometry" />
        </mxCell>
        <mxCell id="NQyV9BDFHaZzxVcDOJKC-6" value="A-B-C2，B样式微调style2&lt;br&gt;（A-B2-C2）" style="rounded=0;whiteSpace=wrap;html=1;" vertex="1" parent="1">
          <mxGeometry x="280" y="180" width="290" height="90" as="geometry" />
        </mxCell>
        <mxCell id="NQyV9BDFHaZzxVcDOJKC-7" value="迭代1" style="rounded=0;whiteSpace=wrap;html=1;" vertex="1" parent="1">
          <mxGeometry x="294" y="87.5" width="46" height="55" as="geometry" />
        </mxCell>
        <mxCell id="NQyV9BDFHaZzxVcDOJKC-8" value="迭代1" style="rounded=0;whiteSpace=wrap;html=1;" vertex="1" parent="1">
          <mxGeometry x="294" y="197.5" width="46" height="55" as="geometry" />
        </mxCell>
        <mxCell id="NQyV9BDFHaZzxVcDOJKC-11" value="" style="rounded=1;whiteSpace=wrap;html=1;" vertex="1" parent="1">
          <mxGeometry x="230" y="370" width="370" height="320" as="geometry" />
        </mxCell>
        <mxCell id="NQyV9BDFHaZzxVcDOJKC-12" value="A-B-C1，B样式微调style1&lt;br&gt;(A-B1-C1)" style="rounded=0;whiteSpace=wrap;html=1;" vertex="1" parent="1">
          <mxGeometry x="280" y="430" width="290" height="90" as="geometry" />
        </mxCell>
        <mxCell id="NQyV9BDFHaZzxVcDOJKC-13" value="A-B-C2，B样式微调style2&lt;br&gt;（A-B2-C2）" style="rounded=0;whiteSpace=wrap;html=1;" vertex="1" parent="1">
          <mxGeometry x="280" y="540" width="290" height="90" as="geometry" />
        </mxCell>
        <mxCell id="NQyV9BDFHaZzxVcDOJKC-14" value="迭代2" style="rounded=0;whiteSpace=wrap;html=1;" vertex="1" parent="1">
          <mxGeometry x="294" y="447.5" width="46" height="55" as="geometry" />
        </mxCell>
        <mxCell id="NQyV9BDFHaZzxVcDOJKC-15" value="迭代2" style="rounded=0;whiteSpace=wrap;html=1;" vertex="1" parent="1">
          <mxGeometry x="294" y="557.5" width="46" height="55" as="geometry" />
        </mxCell>
      </root>
    </mxGraphModel>
  </diagram>
</mxfile>
